# MagicaVoxel @ Ephtracy

# group
g zombox_enemy

# material
mtllib zombox_enemy.mtl
usemtl palette

# normals
vn -1 0 0
vn 1 0 0
vn 0 0 1
vn 0 0 -1
vn 0 -1 0
vn 0 1 0

# texcoords
vt 0.00976563 0.5
vt 0.0292969 0.5
vt 0.548828 0.5
vt 0.955078 0.5
vt 0.958984 0.5
vt 0.994141 0.5

# verts
v -4 0 4
v -4 0 -4
v -4 1 -3
v -4 1 -4
v -4 2 -3
v -4 2 -4
v -4 3 -0
v -4 3 -1
v -4 4 4
v -4 4 3
v -4 4 2
v -4 4 1
v -4 4 -0
v -4 4 -2
v -4 4 -3
v -4 5 2
v -4 5 1
v -4 5 -2
v -4 5 -3
v -4 6 3
v -4 6 2
v -4 6 -0
v -4 6 -1
v -4 7 2
v -4 7 1
v -4 7 -0
v -4 7 -1
v -4 7 -2
v -4 7 -3
v -4 7 -4
v -4 8 4
v -4 8 1
v -4 8 -0
v -4 8 -2
v -4 8 -3
v -4 8 -4
v 3 1 4
v 3 1 3
v 3 1 -3
v 3 1 -4
v 3 2 4
v 3 2 3
v 3 2 2
v 3 2 1
v 3 2 -1
v 3 2 -2
v 3 2 -3
v 3 2 -4
v 3 3 2
v 3 3 1
v 3 3 -1
v 3 3 -2
v 1 1 4
v 1 1 3
v 1 1 -3
v 1 1 -4
v 1 3 4
v 1 3 3
v 1 3 -3
v 1 3 -4
v 3 4 2
v 3 4 1
v 3 4 -1
v 3 4 -2
v 3 5 3
v 3 5 2
v 3 5 1
v 3 5 -1
v 3 5 -2
v 3 5 -3
v 3 6 2
v 3 6 1
v 3 6 -1
v 3 6 -2
v 3 7 3
v 3 7 1
v 3 7 -1
v 3 7 -3
v 4 0 4
v 4 0 -2
v 4 0 -3
v 4 0 -4
v 4 1 4
v 4 1 3
v 4 1 -2
v 4 1 -3
v 4 1 -4
v 4 2 4
v 4 2 3
v 4 2 2
v 4 2 1
v 4 2 -1
v 4 2 -2
v 4 2 -3
v 4 2 -4
v 4 3 4
v 4 3 2
v 4 3 1
v 4 3 -0
v 4 3 -1
v 4 3 -2
v 4 3 -4
v 4 4 3
v 4 4 2
v 4 4 1
v 4 4 -1
v 4 4 -2
v 4 5 3
v 4 5 2
v 4 5 -0
v 4 5 -1
v 4 5 -2
v 4 5 -3
v 4 7 4
v 4 7 3
v 4 7 1
v 4 7 -1
v 4 7 -3
v 4 8 4
v 4 8 1
v 4 8 -3
v 4 8 -4
v -4 0 4
v -4 4 4
v -4 8 4
v -3 1 4
v -3 2 4
v -3 4 4
v -3 6 4
v -3 8 4
v -2 0 4
v -2 1 4
v -2 2 4
v -2 3 4
v -2 4 4
v -2 6 4
v -2 7 4
v -1 0 4
v -1 1 4
v -1 2 4
v -1 3 4
v -1 5 4
v -1 6 4
v -1 7 4
v -1 8 4
v 0 1 4
v 0 3 4
v 0 5 4
v 0 6 4
v 1 1 4
v 1 3 4
v 3 1 4
v 3 2 4
v 3 3 4
v 3 6 4
v 3 7 4
v 3 8 4
v 4 0 4
v 4 1 4
v 4 2 4
v 4 3 4
v 4 7 4
v 4 8 4
v 3 2 2
v 3 3 2
v 4 2 2
v 4 3 2
v 3 4 1
v 3 5 1
v 3 6 1
v 3 7 1
v 4 4 1
v 4 7 1
v 3 2 -1
v 3 3 -1
v 4 2 -1
v 4 3 -1
v 3 4 -2
v 3 5 -2
v 4 4 -2
v 4 5 -2
v 3 1 -3
v 3 2 -3
v 3 5 -3
v 3 7 -3
v 4 1 -3
v 4 2 -3
v 4 5 -3
v 4 7 -3
v 3 1 3
v 3 2 3
v 3 5 3
v 3 7 3
v 4 1 3
v 4 2 3
v 4 5 3
v 4 7 3
v 3 4 2
v 3 5 2
v 4 4 2
v 4 5 2
v 3 2 1
v 3 3 1
v 4 2 1
v 4 3 1
v 3 4 -1
v 3 5 -1
v 3 6 -1
v 3 7 -1
v 4 4 -1
v 4 5 -1
v 4 7 -1
v 3 2 -2
v 3 3 -2
v 4 2 -2
v 4 3 -2
v -4 0 -4
v -4 1 -4
v -4 2 -4
v -4 7 -4
v -4 8 -4
v -3 0 -4
v -3 1 -4
v -3 2 -4
v -3 3 -4
v -2 0 -4
v -2 1 -4
v -2 3 -4
v -2 5 -4
v -2 7 -4
v -2 8 -4
v -1 2 -4
v -1 5 -4
v 0 0 -4
v 0 2 -4
v 1 1 -4
v 1 3 -4
v 1 4 -4
v 2 4 -4
v 2 8 -4
v 3 1 -4
v 3 2 -4
v 3 3 -4
v 3 8 -4
v 4 0 -4
v 4 1 -4
v 4 2 -4
v 4 3 -4
v 4 8 -4
v -4 0 4
v -2 0 4
v -1 0 4
v 4 0 4
v -2 0 3
v -1 0 3
v 1 0 3
v 3 0 3
v 3 0 -2
v 4 0 -2
v -3 0 -3
v -2 0 -3
v 0 0 -3
v 1 0 -3
v 3 0 -3
v 4 0 -3
v -4 0 -4
v -3 0 -4
v -2 0 -4
v 0 0 -4
v 4 0 -4
v 3 2 2
v 4 2 2
v 3 2 1
v 4 2 1
v 3 2 -1
v 4 2 -1
v 3 2 -2
v 4 2 -2
v 1 3 4
v 3 3 4
v 4 3 4
v 1 3 3
v 3 3 3
v 3 3 2
v 4 3 2
v 3 3 1
v 4 3 1
v 3 3 -0
v 4 3 -0
v 3 3 -1
v 4 3 -1
v 3 3 -2
v 4 3 -2
v 1 3 -3
v 3 3 -3
v 1 3 -4
v 3 3 -4
v 4 3 -4
v 3 7 3
v 4 7 3
v 3 7 1
v 4 7 1
v 3 7 -1
v 4 7 -1
v 3 7 -3
v 4 7 -3
v 1 1 4
v 3 1 4
v 1 1 3
v 3 1 3
v 4 1 3
v 3 1 -2
v 4 1 -2
v 1 1 -3
v 3 1 -3
v 4 1 -3
v 1 1 -4
v 3 1 -4
v 3 2 4
v 4 2 4
v 3 2 3
v 4 2 3
v 3 2 -3
v 4 2 -3
v 3 2 -4
v 4 2 -4
v 3 4 2
v 4 4 2
v 3 4 1
v 4 4 1
v 3 4 -1
v 4 4 -1
v 3 4 -2
v 4 4 -2
v 3 5 3
v 4 5 3
v 3 5 2
v 4 5 2
v 3 5 -2
v 4 5 -2
v 3 5 -3
v 4 5 -3
v -4 8 4
v -3 8 4
v -1 8 4
v 3 8 4
v 4 8 4
v -3 8 3
v -1 8 3
v 3 8 3
v -4 8 1
v -3 8 1
v 3 8 1
v 4 8 1
v -4 8 -0
v -3 8 -0
v -4 8 -2
v -3 8 -2
v -4 8 -3
v -3 8 -3
v -2 8 -3
v 2 8 -3
v 3 8 -3
v 4 8 -3
v -4 8 -4
v -2 8 -4
v 2 8 -4
v 3 8 -4
v 4 8 -4

# faces
f 3/1/1 2/1/1 1/1/1
f 4/1/1 2/1/1 3/1/1
f 5/1/1 3/1/1 1/1/1
f 5/4/1 4/4/1 3/4/1
f 6/4/1 4/4/1 5/4/1
f 7/1/1 5/1/1 1/1/1
f 7/1/1 6/1/1 5/1/1
f 8/1/1 6/1/1 7/1/1
f 9/1/1 7/1/1 1/1/1
f 10/1/1 7/1/1 9/1/1
f 11/1/1 7/1/1 10/1/1
f 12/1/1 7/1/1 11/1/1
f 13/3/1 8/3/1 7/3/1
f 13/1/1 7/1/1 12/1/1
f 14/1/1 6/1/1 8/1/1
f 15/1/1 6/1/1 14/1/1
f 16/1/1 12/1/1 11/1/1
f 16/4/1 11/4/1 10/4/1
f 17/4/1 13/4/1 12/4/1
f 17/1/1 12/1/1 16/1/1
f 18/3/1 15/3/1 14/3/1
f 18/1/1 14/1/1 8/1/1
f 19/1/1 6/1/1 15/1/1
f 19/3/1 15/3/1 18/3/1
f 20/2/1 10/2/1 9/2/1
f 20/4/1 16/4/1 10/4/1
f 20/4/1 17/4/1 16/4/1
f 21/4/1 17/4/1 20/4/1
f 22/3/1 8/3/1 13/3/1
f 22/4/1 17/4/1 21/4/1
f 22/4/1 13/4/1 17/4/1
f 23/1/1 18/1/1 8/1/1
f 23/3/1 8/3/1 22/3/1
f 24/2/1 21/2/1 20/2/1
f 24/4/1 22/4/1 21/4/1
f 24/4/1 23/4/1 22/4/1
f 25/4/1 23/4/1 24/4/1
f 26/4/1 23/4/1 25/4/1
f 27/1/1 18/1/1 23/1/1
f 27/4/1 23/4/1 26/4/1
f 28/4/1 19/4/1 18/4/1
f 28/1/1 18/1/1 27/1/1
f 29/1/1 6/1/1 19/1/1
f 29/4/1 19/4/1 28/4/1
f 30/1/1 6/1/1 29/1/1
f 31/2/1 20/2/1 9/2/1
f 31/2/1 24/2/1 20/2/1
f 31/2/1 25/2/1 24/2/1
f 32/4/1 26/4/1 25/4/1
f 32/2/1 25/2/1 31/2/1
f 33/2/1 27/2/1 26/2/1
f 33/4/1 26/4/1 32/4/1
f 33/2/1 28/2/1 27/2/1
f 34/4/1 29/4/1 28/4/1
f 34/2/1 28/2/1 33/2/1
f 35/2/1 30/2/1 29/2/1
f 35/4/1 29/4/1 34/4/1
f 36/2/1 30/2/1 35/2/1
f 41/5/1 38/5/1 37/5/1
f 42/5/1 38/5/1 41/5/1
f 47/5/1 40/5/1 39/5/1
f 48/5/1 40/5/1 47/5/1
f 49/5/1 44/5/1 43/5/1
f 50/5/1 44/5/1 49/5/1
f 51/5/1 46/5/1 45/5/1
f 52/5/1 46/5/1 51/5/1
f 53/1/2 54/1/2 57/1/2
f 54/6/2 55/6/2 58/6/2
f 57/1/2 54/1/2 58/1/2
f 55/1/2 56/1/2 59/1/2
f 58/6/2 55/6/2 59/6/2
f 59/1/2 56/1/2 60/1/2
f 61/5/2 62/5/2 66/5/2
f 66/5/2 62/5/2 67/5/2
f 63/5/2 64/5/2 68/5/2
f 68/5/2 64/5/2 69/5/2
f 66/6/2 67/6/2 71/6/2
f 65/5/2 66/5/2 71/5/2
f 71/6/2 67/6/2 72/6/2
f 68/6/2 69/6/2 73/6/2
f 69/5/2 70/5/2 74/5/2
f 73/6/2 69/6/2 74/6/2
f 71/5/2 72/5/2 75/5/2
f 65/5/2 71/5/2 75/5/2
f 75/5/2 72/5/2 76/5/2
f 73/5/2 74/5/2 77/5/2
f 74/5/2 70/5/2 78/5/2
f 77/5/2 74/5/2 78/5/2
f 79/1/2 80/1/2 83/1/2
f 83/1/2 80/1/2 84/1/2
f 80/3/2 81/3/2 85/3/2
f 84/1/2 80/1/2 85/1/2
f 81/1/2 82/1/2 86/1/2
f 85/3/2 81/3/2 86/3/2
f 86/1/2 82/1/2 87/1/2
f 83/5/2 84/5/2 88/5/2
f 88/5/2 84/5/2 89/5/2
f 86/5/2 87/5/2 94/5/2
f 94/5/2 87/5/2 95/5/2
f 90/5/2 91/5/2 97/5/2
f 97/5/2 91/5/2 98/5/2
f 92/5/2 93/5/2 100/5/2
f 100/5/2 93/5/2 101/5/2
f 98/2/2 99/2/2 103/2/2
f 96/2/2 97/2/2 103/2/2
f 97/2/2 98/2/2 103/2/2
f 103/2/2 99/2/2 104/2/2
f 104/2/2 99/2/2 105/2/2
f 101/1/2 102/1/2 106/1/2
f 100/1/2 101/1/2 106/1/2
f 99/1/2 100/1/2 106/1/2
f 106/1/2 102/1/2 107/1/2
f 103/3/2 104/3/2 108/3/2
f 96/2/2 103/2/2 108/2/2
f 108/3/2 104/3/2 109/3/2
f 105/2/2 99/2/2 110/2/2
f 99/1/2 106/1/2 110/1/2
f 110/1/2 106/1/2 111/1/2
f 107/1/2 102/1/2 112/1/2
f 112/1/2 102/1/2 113/1/2
f 96/2/2 108/2/2 114/2/2
f 114/2/2 108/2/2 115/2/2
f 110/2/2 111/2/2 116/2/2
f 105/2/2 110/2/2 116/2/2
f 116/2/2 111/2/2 117/2/2
f 113/1/2 102/1/2 118/1/2
f 114/1/2 115/1/2 119/1/2
f 115/1/2 116/1/2 119/1/2
f 116/2/2 117/2/2 120/2/2
f 119/1/2 116/1/2 120/1/2
f 117/2/2 118/2/2 120/2/2
f 118/1/2 102/1/2 121/1/2
f 120/2/2 118/2/2 121/2/2
f 121/1/2 102/1/2 122/1/2
f 126/1/3 124/1/3 123/1/3
f 127/1/3 124/1/3 126/1/3
f 128/2/3 125/2/3 124/2/3
f 128/1/3 124/1/3 127/1/3
f 129/2/3 125/2/3 128/2/3
f 130/2/3 125/2/3 129/2/3
f 131/1/3 126/1/3 123/1/3
f 132/4/3 127/4/3 126/4/3
f 132/1/3 126/1/3 131/1/3
f 133/2/3 128/2/3 127/2/3
f 133/4/3 127/4/3 132/4/3
f 134/2/3 128/2/3 133/2/3
f 135/3/3 129/3/3 128/3/3
f 135/2/3 128/2/3 134/2/3
f 136/4/3 130/4/3 129/4/3
f 136/3/3 129/3/3 135/3/3
f 137/4/3 130/4/3 136/4/3
f 138/4/3 132/4/3 131/4/3
f 138/4/3 133/4/3 132/4/3
f 139/4/3 133/4/3 138/4/3
f 140/3/3 134/3/3 133/3/3
f 140/4/3 133/4/3 139/4/3
f 141/2/3 135/2/3 134/2/3
f 141/3/3 134/3/3 140/3/3
f 141/2/3 136/2/3 135/2/3
f 142/2/3 136/2/3 141/2/3
f 143/3/3 137/3/3 136/3/3
f 143/2/3 136/2/3 142/2/3
f 144/4/3 130/4/3 137/4/3
f 144/3/3 137/3/3 143/3/3
f 145/4/3 130/4/3 144/4/3
f 146/1/3 139/1/3 138/1/3
f 146/3/3 140/3/3 139/3/3
f 146/3/3 141/3/3 140/3/3
f 147/1/3 142/1/3 141/1/3
f 147/3/3 141/3/3 146/3/3
f 148/2/3 143/2/3 142/2/3
f 148/1/3 142/1/3 147/1/3
f 148/2/3 145/2/3 144/2/3
f 148/2/3 144/2/3 143/2/3
f 149/2/3 145/2/3 148/2/3
f 150/1/3 147/1/3 146/1/3
f 150/1/3 146/1/3 138/1/3
f 150/1/3 149/1/3 148/1/3
f 150/1/3 148/1/3 147/1/3
f 151/1/3 149/1/3 150/1/3
f 152/1/3 150/1/3 138/1/3
f 154/1/3 149/1/3 151/1/3
f 155/2/3 145/2/3 149/2/3
f 155/1/3 149/1/3 154/1/3
f 156/2/3 145/2/3 155/2/3
f 157/2/3 145/2/3 156/2/3
f 158/1/3 152/1/3 138/1/3
f 159/5/3 153/5/3 152/5/3
f 159/1/3 152/1/3 158/1/3
f 160/5/3 153/5/3 159/5/3
f 161/2/3 155/2/3 154/2/3
f 161/2/3 156/2/3 155/2/3
f 162/1/3 157/1/3 156/1/3
f 162/2/3 156/2/3 161/2/3
f 163/1/3 157/1/3 162/1/3
f 166/5/3 165/5/3 164/5/3
f 167/5/3 165/5/3 166/5/3
f 172/2/3 169/2/3 168/2/3
f 172/2/3 171/2/3 170/2/3
f 172/2/3 170/2/3 169/2/3
f 173/2/3 171/2/3 172/2/3
f 176/5/3 175/5/3 174/5/3
f 177/5/3 175/5/3 176/5/3
f 180/1/3 179/1/3 178/1/3
f 181/1/3 179/1/3 180/1/3
f 186/5/3 183/5/3 182/5/3
f 187/5/3 183/5/3 186/5/3
f 188/1/3 185/1/3 184/1/3
f 189/1/3 185/1/3 188/1/3
f 190/5/4 191/5/4 194/5/4
f 194/5/4 191/5/4 195/5/4
f 192/2/4 193/2/4 196/2/4
f 196/2/4 193/2/4 197/2/4
f 198/3/4 199/3/4 200/3/4
f 200/3/4 199/3/4 201/3/4
f 202/5/4 203/5/4 204/5/4
f 204/5/4 203/5/4 205/5/4
f 206/1/4 207/1/4 210/1/4
f 208/2/4 209/2/4 211/2/4
f 210/1/4 207/1/4 211/1/4
f 207/2/4 208/2/4 211/2/4
f 211/2/4 209/2/4 212/2/4
f 213/5/4 214/5/4 215/5/4
f 215/5/4 214/5/4 216/5/4
f 217/1/4 218/1/4 222/1/4
f 218/4/4 219/4/4 223/4/4
f 222/1/4 218/1/4 223/1/4
f 219/1/4 220/1/4 224/1/4
f 223/4/4 219/4/4 224/4/4
f 224/1/4 220/1/4 225/1/4
f 222/3/4 223/3/4 226/3/4
f 223/4/4 224/4/4 227/4/4
f 226/3/4 223/3/4 227/3/4
f 224/4/4 225/4/4 227/4/4
f 225/1/4 220/1/4 228/1/4
f 227/4/4 225/4/4 228/4/4
f 228/1/4 220/1/4 229/1/4
f 220/2/4 221/2/4 230/2/4
f 229/1/4 220/1/4 230/1/4
f 230/2/4 221/2/4 231/2/4
f 228/4/4 229/4/4 232/4/4
f 226/4/4 227/4/4 232/4/4
f 227/4/4 228/4/4 232/4/4
f 230/1/4 231/1/4 233/1/4
f 232/4/4 229/4/4 233/4/4
f 229/1/4 230/1/4 233/1/4
f 226/4/4 232/4/4 234/4/4
f 232/1/4 233/1/4 235/1/4
f 234/4/4 232/4/4 235/4/4
f 234/1/4 235/1/4 236/1/4
f 235/1/4 233/1/4 237/1/4
f 236/1/4 235/1/4 237/1/4
f 237/1/4 233/1/4 238/1/4
f 238/1/4 233/1/4 239/1/4
f 237/2/4 238/2/4 239/2/4
f 233/1/4 231/1/4 240/1/4
f 239/1/4 233/1/4 240/1/4
f 234/1/4 236/1/4 241/1/4
f 237/2/4 239/2/4 243/2/4
f 239/2/4 240/2/4 243/2/4
f 243/2/4 240/2/4 244/2/4
f 234/1/4 241/1/4 245/1/4
f 241/5/4 242/5/4 246/5/4
f 245/1/4 241/1/4 246/1/4
f 246/5/4 242/5/4 247/5/4
f 243/1/4 244/1/4 248/1/4
f 248/1/4 244/1/4 249/1/4
f 254/1/5 251/1/5 250/1/5
f 254/4/5 252/4/5 251/4/5
f 255/1/5 253/1/5 252/1/5
f 255/4/5 252/4/5 254/4/5
f 256/1/5 253/1/5 255/1/5
f 257/1/5 253/1/5 256/1/5
f 258/6/5 257/6/5 256/6/5
f 258/1/5 253/1/5 257/1/5
f 259/1/5 253/1/5 258/1/5
f 260/1/5 254/1/5 250/1/5
f 260/1/5 255/1/5 254/1/5
f 260/1/5 256/1/5 255/1/5
f 261/1/5 256/1/5 260/1/5
f 262/1/5 256/1/5 261/1/5
f 263/6/5 258/6/5 256/6/5
f 263/1/5 256/1/5 262/1/5
f 264/3/5 259/3/5 258/3/5
f 264/6/5 258/6/5 263/6/5
f 265/3/5 259/3/5 264/3/5
f 266/1/5 260/1/5 250/1/5
f 267/3/5 261/3/5 260/3/5
f 267/1/5 260/1/5 266/1/5
f 268/4/5 262/4/5 261/4/5
f 268/3/5 261/3/5 267/3/5
f 269/1/5 263/1/5 262/1/5
f 269/4/5 262/4/5 268/4/5
f 269/1/5 264/1/5 263/1/5
f 269/1/5 265/1/5 264/1/5
f 270/1/5 265/1/5 269/1/5
f 273/5/5 272/5/5 271/5/5
f 274/5/5 272/5/5 273/5/5
f 277/5/5 276/5/5 275/5/5
f 278/5/5 276/5/5 277/5/5
f 282/1/5 280/1/5 279/1/5
f 283/2/5 281/2/5 280/2/5
f 283/1/5 280/1/5 282/1/5
f 284/6/5 283/6/5 282/6/5
f 284/2/5 281/2/5 283/2/5
f 285/2/5 281/2/5 284/2/5
f 286/6/5 284/6/5 282/6/5
f 288/6/5 286/6/5 282/6/5
f 288/2/5 287/2/5 286/2/5
f 289/2/5 287/2/5 288/2/5
f 290/6/5 288/6/5 282/6/5
f 290/1/5 289/1/5 288/1/5
f 291/1/5 289/1/5 290/1/5
f 292/6/5 290/6/5 282/6/5
f 294/6/5 292/6/5 282/6/5
f 295/1/5 293/1/5 292/1/5
f 295/6/5 292/6/5 294/6/5
f 296/2/5 295/2/5 294/2/5
f 297/1/5 293/1/5 295/1/5
f 297/2/5 295/2/5 296/2/5
f 298/1/5 293/1/5 297/1/5
f 301/1/5 300/1/5 299/1/5
f 302/1/5 300/1/5 301/1/5
f 305/2/5 304/2/5 303/2/5
f 306/2/5 304/2/5 305/2/5
f 307/1/6 308/1/6 309/1/6
f 309/1/6 308/1/6 310/1/6
f 309/6/6 310/6/6 312/6/6
f 310/1/6 311/1/6 312/1/6
f 312/1/6 311/1/6 313/1/6
f 309/6/6 312/6/6 314/6/6
f 312/3/6 313/3/6 315/3/6
f 314/6/6 312/6/6 315/6/6
f 315/3/6 313/3/6 316/3/6
f 314/1/6 315/1/6 317/1/6
f 317/1/6 315/1/6 318/1/6
f 319/5/6 320/5/6 321/5/6
f 321/5/6 320/5/6 322/5/6
f 323/5/6 324/5/6 325/5/6
f 325/5/6 324/5/6 326/5/6
f 327/2/6 328/2/6 329/2/6
f 329/2/6 328/2/6 330/2/6
f 331/1/6 332/1/6 333/1/6
f 333/1/6 332/1/6 334/1/6
f 335/3/6 336/3/6 337/3/6
f 337/3/6 336/3/6 338/3/6
f 339/1/6 340/1/6 341/1/6
f 341/1/6 340/1/6 342/1/6
f 343/2/6 344/2/6 348/2/6
f 344/4/6 345/4/6 348/4/6
f 345/2/6 346/2/6 349/2/6
f 348/4/6 345/4/6 349/4/6
f 346/1/6 347/1/6 350/1/6
f 349/2/6 346/2/6 350/2/6
f 343/2/6 348/2/6 351/2/6
f 348/6/6 349/6/6 352/6/6
f 351/2/6 348/2/6 352/2/6
f 349/6/6 350/6/6 352/6/6
f 350/1/6 347/1/6 353/1/6
f 352/6/6 350/6/6 353/6/6
f 353/1/6 347/1/6 354/1/6
f 351/4/6 352/4/6 355/4/6
f 352/6/6 353/6/6 356/6/6
f 355/4/6 352/4/6 356/4/6
f 355/2/6 356/2/6 357/2/6
f 356/6/6 353/6/6 358/6/6
f 357/2/6 356/2/6 358/2/6
f 357/4/6 358/4/6 359/4/6
f 358/6/6 353/6/6 360/6/6
f 359/4/6 358/4/6 360/4/6
f 360/6/6 353/6/6 361/6/6
f 361/6/6 353/6/6 362/6/6
f 353/2/6 354/2/6 363/2/6
f 362/6/6 353/6/6 363/6/6
f 363/2/6 354/2/6 364/2/6
f 359/2/6 360/2/6 365/2/6
f 360/2/6 361/2/6 365/2/6
f 361/1/6 362/1/6 366/1/6
f 365/2/6 361/2/6 366/2/6
f 362/2/6 363/2/6 367/2/6
f 366/1/6 362/1/6 367/1/6
f 363/1/6 364/1/6 368/1/6
f 367/2/6 363/2/6 368/2/6
f 368/1/6 364/1/6 369/1/6
