# MagicaVoxel @ Ephtracy

# group
g enemy!

# material
mtllib enemy!.mtl
usemtl palette

# normals
vn -1 0 0
vn 1 0 0
vn 0 0 1
vn 0 0 -1
vn 0 -1 0
vn 0 1 0

# texcoords
vt 0.146484 0.5
vt 0.279297 0.5
vt 0.306641 0.5
vt 0.337891 0.5
vt 0.958984 0.5
vt 0.994141 0.5

# verts
v -0.5 1 16
v -0.5 1 14
v -0.5 2 14
v -0.5 2 13
v -0.5 3 15
v -0.5 3 14
v -0.5 3 13
v -0.5 3 12
v -0.5 4 14
v -0.5 4 13
v -0.5 4 12
v -0.5 4 11
v -0.5 5 14
v -0.5 5 13
v -0.5 5 12
v -0.5 5 11
v -0.5 5 10
v -0.5 6 13
v -0.5 6 12
v -0.5 6 11
v -0.5 6 10
v -0.5 6 9
v -0.5 7 19
v -0.5 7 16
v -0.5 7 12
v -0.5 7 11
v -0.5 7 10
v -0.5 7 9
v -0.5 7 -19
v -0.5 8 20
v -0.5 8 19
v -0.5 8 18
v -0.5 8 15
v -0.5 8 11
v -0.5 8 10
v -0.5 8 -18
v -0.5 8 -19
v -0.5 8 -20
v -0.5 9 19
v -0.5 9 18
v -0.5 9 14
v -0.5 9 10
v -0.5 9 -18
v -0.5 9 -19
v -0.5 10 -9
v -0.5 10 -11
v -0.5 11 -8
v -0.5 11 -9
v -0.5 11 -11
v -0.5 11 -12
v -0.5 12 8
v -0.5 12 -3
v -0.5 13 10
v -0.5 13 9
v -0.5 13 8
v -0.5 13 6
v -0.5 13 -1
v -0.5 13 -8
v -0.5 13 -9
v -0.5 13 -11
v -0.5 13 -12
v -0.5 14 5
v -0.5 14 4
v -0.5 14 1
v -0.5 14 -0
v -0.5 14 -2
v -0.5 14 -3
v -0.5 14 -9
v -0.5 14 -11
v -0.5 15 11
v -0.5 15 10
v -0.5 15 6
v -0.5 15 5
v -0.5 15 4
v -0.5 15 1
v -0.5 15 -0
v -0.5 15 -1
v -0.5 15 -2
v -0.5 15 -3
v -0.5 15 -9
v -0.5 15 -11
v -0.5 16 10
v -0.5 16 9
v -0.5 16 -2
v -0.5 16 -3
v -0.5 17 6
v -0.5 17 4
v -0.5 17 1
v -0.5 17 -1
v -0.5 17 -2
v -0.5 17 -3
v -0.5 18 6
v -0.5 18 5
v -0.5 18 -0
v -0.5 18 -1
v -0.5 18 -8
v -0.5 18 -9
v -0.5 18 -11
v -0.5 18 -12
v -0.5 19 7
v -0.5 19 6
v -0.5 19 5
v -0.5 19 4
v -0.5 19 1
v -0.5 19 -0
v -0.5 19 -1
v -0.5 20 10
v -0.5 20 9
v -0.5 20 8
v -0.5 20 7
v -0.5 20 6
v -0.5 20 -3
v -0.5 21 9
v -0.5 21 8
v -0.5 21 7
v -0.5 21 6
v -0.5 21 -2
v -0.5 21 -3
v -0.5 22 9
v -0.5 22 8
v -0.5 22 -0
v -0.5 22 -1
v -0.5 22 -2
v -0.5 22 -7
v -0.5 22 -8
v -0.5 22 -12
v -0.5 22 -13
v -0.5 23 11
v -0.5 23 10
v -0.5 23 7
v -0.5 23 6
v -0.5 23 -0
v -0.5 23 -1
v -0.5 24 10
v -0.5 24 7
v -0.5 24 6
v -0.5 24 -0
v -0.5 26 -7
v -0.5 26 -13
v -0.5 28 19
v -0.5 28 18
v -0.5 28 -18
v -0.5 28 -19
v -0.5 29 20
v -0.5 29 19
v -0.5 29 18
v -0.5 29 -18
v -0.5 29 -19
v -0.5 29 -20
v -0.5 30 19
v -0.5 30 -19
v 0.5 1 16
v 0.5 1 14
v 0.5 2 14
v 0.5 2 13
v 0.5 3 15
v 0.5 3 14
v 0.5 3 13
v 0.5 3 12
v 0.5 4 14
v 0.5 4 13
v 0.5 4 12
v 0.5 4 11
v 0.5 5 14
v 0.5 5 13
v 0.5 5 12
v 0.5 5 11
v 0.5 5 10
v 0.5 6 13
v 0.5 6 12
v 0.5 6 11
v 0.5 6 10
v 0.5 6 9
v 0.5 7 19
v 0.5 7 16
v 0.5 7 12
v 0.5 7 11
v 0.5 7 10
v 0.5 7 9
v 0.5 7 -19
v 0.5 8 20
v 0.5 8 19
v 0.5 8 18
v 0.5 8 15
v 0.5 8 11
v 0.5 8 10
v 0.5 8 -18
v 0.5 8 -19
v 0.5 8 -20
v 0.5 9 19
v 0.5 9 18
v 0.5 9 14
v 0.5 9 10
v 0.5 9 -18
v 0.5 9 -19
v 0.5 10 -9
v 0.5 10 -11
v 0.5 11 -8
v 0.5 11 -9
v 0.5 11 -11
v 0.5 11 -12
v 0.5 12 8
v 0.5 12 -3
v 0.5 13 10
v 0.5 13 9
v 0.5 13 8
v 0.5 13 6
v 0.5 13 -1
v 0.5 13 -8
v 0.5 13 -9
v 0.5 13 -11
v 0.5 13 -12
v 0.5 14 5
v 0.5 14 4
v 0.5 14 1
v 0.5 14 -0
v 0.5 14 -2
v 0.5 14 -3
v 0.5 14 -9
v 0.5 14 -11
v 0.5 15 11
v 0.5 15 10
v 0.5 15 6
v 0.5 15 5
v 0.5 15 4
v 0.5 15 1
v 0.5 15 -0
v 0.5 15 -1
v 0.5 15 -2
v 0.5 15 -3
v 0.5 15 -9
v 0.5 15 -11
v 0.5 16 10
v 0.5 16 9
v 0.5 16 -2
v 0.5 16 -3
v 0.5 17 6
v 0.5 17 4
v 0.5 17 1
v 0.5 17 -1
v 0.5 17 -2
v 0.5 17 -3
v 0.5 18 6
v 0.5 18 5
v 0.5 18 -0
v 0.5 18 -1
v 0.5 18 -8
v 0.5 18 -9
v 0.5 18 -11
v 0.5 18 -12
v 0.5 19 7
v 0.5 19 6
v 0.5 19 5
v 0.5 19 4
v 0.5 19 1
v 0.5 19 -0
v 0.5 19 -1
v 0.5 20 10
v 0.5 20 9
v 0.5 20 8
v 0.5 20 7
v 0.5 20 6
v 0.5 20 -3
v 0.5 21 9
v 0.5 21 8
v 0.5 21 7
v 0.5 21 6
v 0.5 21 -2
v 0.5 21 -3
v 0.5 22 9
v 0.5 22 8
v 0.5 22 -0
v 0.5 22 -1
v 0.5 22 -2
v 0.5 22 -7
v 0.5 22 -8
v 0.5 22 -12
v 0.5 22 -13
v 0.5 23 11
v 0.5 23 10
v 0.5 23 7
v 0.5 23 6
v 0.5 23 -0
v 0.5 23 -1
v 0.5 24 10
v 0.5 24 7
v 0.5 24 6
v 0.5 24 -0
v 0.5 26 -7
v 0.5 26 -13
v 0.5 28 19
v 0.5 28 18
v 0.5 28 -18
v 0.5 28 -19
v 0.5 29 20
v 0.5 29 19
v 0.5 29 18
v 0.5 29 -18
v 0.5 29 -19
v 0.5 29 -20
v 0.5 30 19
v 0.5 30 -19
v -0.5 8 20
v -0.5 29 20
v 0.5 8 20
v 0.5 29 20
v -0.5 7 19
v -0.5 8 19
v -0.5 29 19
v -0.5 30 19
v 0.5 7 19
v 0.5 8 19
v 0.5 29 19
v 0.5 30 19
v -0.5 1 16
v -0.5 7 16
v 0.5 1 16
v 0.5 7 16
v -0.5 1 14
v -0.5 2 14
v 0.5 1 14
v 0.5 2 14
v -0.5 2 13
v -0.5 3 13
v 0.5 2 13
v 0.5 3 13
v -0.5 3 12
v -0.5 4 12
v 0.5 3 12
v 0.5 4 12
v -0.5 4 11
v -0.5 5 11
v 0.5 4 11
v 0.5 5 11
v -0.5 5 10
v -0.5 6 10
v 0.5 5 10
v 0.5 6 10
v -0.5 6 9
v -0.5 7 9
v 0.5 6 9
v 0.5 7 9
v -0.5 7 -19
v -0.5 8 -19
v -0.5 29 -19
v -0.5 30 -19
v 0.5 7 -19
v 0.5 8 -19
v 0.5 29 -19
v 0.5 30 -19
v -0.5 8 -20
v -0.5 29 -20
v 0.5 8 -20
v 0.5 29 -20
v -0.5 1 16
v 0.5 1 16
v -0.5 1 14
v 0.5 1 14
v -0.5 2 14
v 0.5 2 14
v -0.5 2 13
v 0.5 2 13
v -0.5 3 13
v 0.5 3 13
v -0.5 3 12
v 0.5 3 12
v -0.5 4 12
v 0.5 4 12
v -0.5 4 11
v 0.5 4 11
v -0.5 5 11
v 0.5 5 11
v -0.5 5 10
v 0.5 5 10
v -0.5 6 10
v 0.5 6 10
v -0.5 6 9
v 0.5 6 9
v -0.5 7 19
v 0.5 7 19
v -0.5 7 16
v 0.5 7 16
v -0.5 7 9
v 0.5 7 9
v -0.5 7 -19
v 0.5 7 -19
v -0.5 8 20
v 0.5 8 20
v -0.5 8 19
v 0.5 8 19
v -0.5 8 -19
v 0.5 8 -19
v -0.5 8 -20
v 0.5 8 -20
v -0.5 29 20
v 0.5 29 20
v -0.5 29 19
v 0.5 29 19
v -0.5 29 -19
v 0.5 29 -19
v -0.5 29 -20
v 0.5 29 -20
v -0.5 30 19
v 0.5 30 19
v -0.5 30 -19
v 0.5 30 -19

# faces
f 3/1/1 2/1/1 1/1/1
f 5/1/1 3/1/1 1/1/1
f 5/1/1 4/1/1 3/1/1
f 6/1/1 4/1/1 5/1/1
f 7/1/1 4/1/1 6/1/1
f 9/6/1 6/6/1 5/6/1
f 9/1/1 8/1/1 7/1/1
f 9/1/1 7/1/1 6/1/1
f 10/1/1 8/1/1 9/1/1
f 11/1/1 8/1/1 10/1/1
f 13/6/1 9/6/1 5/6/1
f 13/6/1 10/6/1 9/6/1
f 14/1/1 12/1/1 11/1/1
f 14/6/1 10/6/1 13/6/1
f 14/1/1 11/1/1 10/1/1
f 15/1/1 12/1/1 14/1/1
f 16/1/1 12/1/1 15/1/1
f 18/1/1 14/1/1 13/1/1
f 18/6/1 15/6/1 14/6/1
f 19/1/1 17/1/1 16/1/1
f 19/6/1 15/6/1 18/6/1
f 19/1/1 16/1/1 15/1/1
f 20/1/1 17/1/1 19/1/1
f 21/1/1 17/1/1 20/1/1
f 24/1/1 5/1/1 1/1/1
f 25/1/1 19/1/1 18/1/1
f 25/6/1 20/6/1 19/6/1
f 26/1/1 22/1/1 21/1/1
f 26/6/1 20/6/1 25/6/1
f 26/1/1 21/1/1 20/1/1
f 27/1/1 22/1/1 26/1/1
f 28/1/1 22/1/1 27/1/1
f 31/1/1 24/1/1 23/1/1
f 32/1/1 24/1/1 31/1/1
f 33/6/1 13/6/1 5/6/1
f 33/1/1 24/1/1 32/1/1
f 33/1/1 5/1/1 24/1/1
f 34/1/1 26/1/1 25/1/1
f 34/6/1 27/6/1 26/6/1
f 35/1/1 29/1/1 28/1/1
f 35/6/1 27/6/1 34/6/1
f 35/1/1 28/1/1 27/1/1
f 36/1/1 29/1/1 35/1/1
f 37/1/1 29/1/1 36/1/1
f 39/1/1 32/1/1 31/1/1
f 39/1/1 31/1/1 30/1/1
f 40/6/1 33/6/1 32/6/1
f 40/1/1 32/1/1 39/1/1
f 41/1/1 25/1/1 18/1/1
f 41/6/1 33/6/1 40/6/1
f 41/1/1 18/1/1 13/1/1
f 41/1/1 34/1/1 25/1/1
f 41/1/1 35/1/1 34/1/1
f 41/6/1 13/6/1 33/6/1
f 42/6/1 36/6/1 35/6/1
f 42/1/1 35/1/1 41/1/1
f 43/1/1 38/1/1 37/1/1
f 43/6/1 36/6/1 42/6/1
f 43/1/1 37/1/1 36/1/1
f 44/1/1 38/1/1 43/1/1
f 45/1/1 42/1/1 41/1/1
f 45/1/1 41/1/1 40/1/1
f 45/1/1 43/1/1 42/1/1
f 46/1/1 43/1/1 45/1/1
f 47/1/1 45/1/1 40/1/1
f 48/5/1 46/5/1 45/5/1
f 48/1/1 45/1/1 47/1/1
f 49/1/1 43/1/1 46/1/1
f 49/5/1 46/5/1 48/5/1
f 50/1/1 43/1/1 49/1/1
f 51/1/1 47/1/1 40/1/1
f 52/1/1 47/1/1 51/1/1
f 53/1/1 51/1/1 40/1/1
f 54/1/1 51/1/1 53/1/1
f 55/4/1 52/4/1 51/4/1
f 55/1/1 51/1/1 54/1/1
f 56/4/1 52/4/1 55/4/1
f 57/4/1 52/4/1 56/4/1
f 58/5/1 48/5/1 47/5/1
f 58/5/1 49/5/1 48/5/1
f 58/5/1 50/5/1 49/5/1
f 58/1/1 47/1/1 52/1/1
f 59/5/1 50/5/1 58/5/1
f 60/5/1 50/5/1 59/5/1
f 61/1/1 43/1/1 50/1/1
f 61/5/1 50/5/1 60/5/1
f 62/6/1 57/6/1 56/6/1
f 63/6/1 57/6/1 62/6/1
f 64/6/1 57/6/1 63/6/1
f 65/6/1 57/6/1 64/6/1
f 66/4/1 52/4/1 57/4/1
f 67/1/1 58/1/1 52/1/1
f 67/4/1 52/4/1 66/4/1
f 67/1/1 59/1/1 58/1/1
f 68/5/1 60/5/1 59/5/1
f 68/1/1 59/1/1 67/1/1
f 69/1/1 61/1/1 60/1/1
f 69/5/1 60/5/1 68/5/1
f 70/1/1 53/1/1 40/1/1
f 71/6/1 54/6/1 53/6/1
f 71/1/1 53/1/1 70/1/1
f 72/4/1 56/4/1 55/4/1
f 72/6/1 62/6/1 56/6/1
f 73/5/1 63/5/1 62/5/1
f 73/6/1 62/6/1 72/6/1
f 74/6/1 64/6/1 63/6/1
f 74/5/1 63/5/1 73/5/1
f 75/5/1 65/5/1 64/5/1
f 75/6/1 64/6/1 74/6/1
f 76/6/1 57/6/1 65/6/1
f 76/5/1 65/5/1 75/5/1
f 77/4/1 66/4/1 57/4/1
f 77/6/1 57/6/1 76/6/1
f 78/6/1 67/6/1 66/6/1
f 78/4/1 66/4/1 77/4/1
f 79/1/1 68/1/1 67/1/1
f 79/6/1 67/6/1 78/6/1
f 79/1/1 69/1/1 68/1/1
f 80/1/1 69/1/1 79/1/1
f 81/1/1 61/1/1 69/1/1
f 81/1/1 69/1/1 80/1/1
f 82/6/1 54/6/1 71/6/1
f 82/2/1 71/2/1 70/2/1
f 83/2/1 55/2/1 54/2/1
f 83/6/1 54/6/1 82/6/1
f 84/4/1 75/4/1 74/4/1
f 84/4/1 77/4/1 76/4/1
f 84/4/1 76/4/1 75/4/1
f 84/4/1 79/4/1 78/4/1
f 84/4/1 73/4/1 72/4/1
f 84/4/1 74/4/1 73/4/1
f 84/4/1 78/4/1 77/4/1
f 85/1/1 80/1/1 79/1/1
f 85/4/1 79/4/1 84/4/1
f 86/4/1 84/4/1 72/4/1
f 86/4/1 72/4/1 55/4/1
f 87/4/1 84/4/1 86/4/1
f 88/4/1 84/4/1 87/4/1
f 89/4/1 84/4/1 88/4/1
f 90/6/1 85/6/1 84/6/1
f 90/4/1 84/4/1 89/4/1
f 91/1/1 80/1/1 85/1/1
f 91/6/1 85/6/1 90/6/1
f 92/4/1 86/4/1 55/4/1
f 92/5/1 87/5/1 86/5/1
f 93/5/1 87/5/1 92/5/1
f 94/5/1 89/5/1 88/5/1
f 95/4/1 90/4/1 89/4/1
f 95/5/1 89/5/1 94/5/1
f 95/4/1 91/4/1 90/4/1
f 96/1/1 80/1/1 91/1/1
f 97/5/1 81/5/1 80/5/1
f 97/1/1 80/1/1 96/1/1
f 98/1/1 61/1/1 81/1/1
f 98/5/1 81/5/1 97/5/1
f 99/1/1 43/1/1 61/1/1
f 99/1/1 61/1/1 98/1/1
f 100/4/1 92/4/1 55/4/1
f 101/6/1 93/6/1 92/6/1
f 101/4/1 92/4/1 100/4/1
f 102/5/1 87/5/1 93/5/1
f 102/6/1 93/6/1 101/6/1
f 103/4/1 88/4/1 87/4/1
f 103/5/1 87/5/1 102/5/1
f 104/5/1 94/5/1 88/5/1
f 104/4/1 88/4/1 103/4/1
f 105/6/1 95/6/1 94/6/1
f 105/5/1 94/5/1 104/5/1
f 106/4/1 91/4/1 95/4/1
f 106/6/1 95/6/1 105/6/1
f 107/2/1 83/2/1 82/2/1
f 107/2/1 82/2/1 70/2/1
f 108/2/1 55/2/1 83/2/1
f 108/2/1 83/2/1 107/2/1
f 109/4/1 100/4/1 55/4/1
f 109/2/1 55/2/1 108/2/1
f 110/6/1 101/6/1 100/6/1
f 110/4/1 100/4/1 109/4/1
f 111/4/1 106/4/1 105/4/1
f 111/6/1 101/6/1 110/6/1
f 111/4/1 103/4/1 102/4/1
f 111/4/1 105/4/1 104/4/1
f 111/4/1 104/4/1 103/4/1
f 111/4/1 102/4/1 101/4/1
f 112/4/1 91/4/1 106/4/1
f 112/4/1 106/4/1 111/4/1
f 112/1/1 96/1/1 91/1/1
f 113/2/1 109/2/1 108/2/1
f 113/6/1 108/6/1 107/6/1
f 114/3/1 110/3/1 109/3/1
f 114/2/1 109/2/1 113/2/1
f 115/6/1 111/6/1 110/6/1
f 115/3/1 110/3/1 114/3/1
f 116/3/1 112/3/1 111/3/1
f 116/6/1 111/6/1 115/6/1
f 117/3/1 112/3/1 116/3/1
f 118/1/1 96/1/1 112/1/1
f 118/3/1 112/3/1 117/3/1
f 119/3/1 114/3/1 113/3/1
f 119/6/1 113/6/1 107/6/1
f 120/6/1 117/6/1 116/6/1
f 120/3/1 114/3/1 119/3/1
f 120/6/1 115/6/1 114/6/1
f 120/6/1 116/6/1 115/6/1
f 121/6/1 117/6/1 120/6/1
f 122/6/1 117/6/1 121/6/1
f 123/1/1 118/1/1 117/1/1
f 123/6/1 117/6/1 122/6/1
f 124/1/1 96/1/1 118/1/1
f 124/1/1 118/1/1 123/1/1
f 125/5/1 98/5/1 97/5/1
f 125/1/1 96/1/1 124/1/1
f 125/5/1 97/5/1 96/5/1
f 125/5/1 99/5/1 98/5/1
f 126/1/1 43/1/1 99/1/1
f 126/5/1 99/5/1 125/5/1
f 127/1/1 43/1/1 126/1/1
f 128/2/1 107/2/1 70/2/1
f 128/1/1 70/1/1 40/1/1
f 129/6/1 121/6/1 120/6/1
f 129/2/1 107/2/1 128/2/1
f 129/6/1 120/6/1 119/6/1
f 129/6/1 119/6/1 107/6/1
f 130/6/1 121/6/1 129/6/1
f 131/6/1 121/6/1 130/6/1
f 132/3/1 122/3/1 121/3/1
f 132/6/1 121/6/1 131/6/1
f 133/1/1 123/1/1 122/1/1
f 133/3/1 122/3/1 132/3/1
f 133/1/1 124/1/1 123/1/1
f 134/3/1 130/3/1 129/3/1
f 134/1/1 129/1/1 128/1/1
f 135/6/1 131/6/1 130/6/1
f 135/3/1 130/3/1 134/3/1
f 136/3/1 132/3/1 131/3/1
f 136/6/1 131/6/1 135/6/1
f 137/1/1 133/1/1 132/1/1
f 137/3/1 132/3/1 136/3/1
f 138/1/1 135/1/1 134/1/1
f 138/1/1 133/1/1 137/1/1
f 138/1/1 137/1/1 136/1/1
f 138/1/1 136/1/1 135/1/1
f 138/5/1 125/5/1 124/5/1
f 138/5/1 126/5/1 125/5/1
f 138/5/1 127/5/1 126/5/1
f 138/1/1 124/1/1 133/1/1
f 139/1/1 43/1/1 127/1/1
f 139/5/1 127/5/1 138/5/1
f 140/6/1 40/6/1 39/6/1
f 140/1/1 39/1/1 30/1/1
f 141/1/1 139/1/1 138/1/1
f 141/6/1 40/6/1 140/6/1
f 141/1/1 138/1/1 134/1/1
f 141/1/1 128/1/1 40/1/1
f 141/1/1 134/1/1 128/1/1
f 142/1/1 43/1/1 139/1/1
f 142/1/1 139/1/1 141/1/1
f 142/6/1 44/6/1 43/6/1
f 143/1/1 38/1/1 44/1/1
f 143/6/1 44/6/1 142/6/1
f 144/1/1 141/1/1 140/1/1
f 144/1/1 140/1/1 30/1/1
f 145/1/1 141/1/1 144/1/1
f 146/6/1 142/6/1 141/6/1
f 146/1/1 141/1/1 145/1/1
f 147/1/1 143/1/1 142/1/1
f 147/6/1 142/6/1 146/6/1
f 148/1/1 38/1/1 143/1/1
f 148/1/1 143/1/1 147/1/1
f 149/1/1 38/1/1 148/1/1
f 150/1/1 147/1/1 146/1/1
f 150/1/1 148/1/1 147/1/1
f 150/1/1 146/1/1 145/1/1
f 151/1/1 148/1/1 150/1/1
f 152/1/2 153/1/2 154/1/2
f 152/1/2 154/1/2 156/1/2
f 154/1/2 155/1/2 156/1/2
f 156/1/2 155/1/2 157/1/2
f 157/1/2 155/1/2 158/1/2
f 156/6/2 157/6/2 160/6/2
f 158/1/2 159/1/2 160/1/2
f 157/1/2 158/1/2 160/1/2
f 160/1/2 159/1/2 161/1/2
f 161/1/2 159/1/2 162/1/2
f 156/6/2 160/6/2 164/6/2
f 160/6/2 161/6/2 164/6/2
f 162/1/2 163/1/2 165/1/2
f 164/6/2 161/6/2 165/6/2
f 161/1/2 162/1/2 165/1/2
f 165/1/2 163/1/2 166/1/2
f 166/1/2 163/1/2 167/1/2
f 164/1/2 165/1/2 169/1/2
f 165/6/2 166/6/2 169/6/2
f 167/1/2 168/1/2 170/1/2
f 169/6/2 166/6/2 170/6/2
f 166/1/2 167/1/2 170/1/2
f 170/1/2 168/1/2 171/1/2
f 171/1/2 168/1/2 172/1/2
f 152/1/2 156/1/2 175/1/2
f 169/1/2 170/1/2 176/1/2
f 170/6/2 171/6/2 176/6/2
f 172/1/2 173/1/2 177/1/2
f 176/6/2 171/6/2 177/6/2
f 171/1/2 172/1/2 177/1/2
f 177/1/2 173/1/2 178/1/2
f 178/1/2 173/1/2 179/1/2
f 174/1/2 175/1/2 182/1/2
f 182/1/2 175/1/2 183/1/2
f 156/6/2 164/6/2 184/6/2
f 183/1/2 175/1/2 184/1/2
f 175/1/2 156/1/2 184/1/2
f 176/1/2 177/1/2 185/1/2
f 177/6/2 178/6/2 185/6/2
f 179/1/2 180/1/2 186/1/2
f 185/6/2 178/6/2 186/6/2
f 178/1/2 179/1/2 186/1/2
f 186/1/2 180/1/2 187/1/2
f 187/1/2 180/1/2 188/1/2
f 182/1/2 183/1/2 190/1/2
f 181/1/2 182/1/2 190/1/2
f 183/6/2 184/6/2 191/6/2
f 190/1/2 183/1/2 191/1/2
f 169/1/2 176/1/2 192/1/2
f 191/6/2 184/6/2 192/6/2
f 164/1/2 169/1/2 192/1/2
f 176/1/2 185/1/2 192/1/2
f 185/1/2 186/1/2 192/1/2
f 184/6/2 164/6/2 192/6/2
f 186/6/2 187/6/2 193/6/2
f 192/1/2 186/1/2 193/1/2
f 188/1/2 189/1/2 194/1/2
f 193/6/2 187/6/2 194/6/2
f 187/1/2 188/1/2 194/1/2
f 194/1/2 189/1/2 195/1/2
f 192/1/2 193/1/2 196/1/2
f 191/1/2 192/1/2 196/1/2
f 193/1/2 194/1/2 196/1/2
f 196/1/2 194/1/2 197/1/2
f 191/1/2 196/1/2 198/1/2
f 196/5/2 197/5/2 199/5/2
f 198/1/2 196/1/2 199/1/2
f 197/1/2 194/1/2 200/1/2
f 199/5/2 197/5/2 200/5/2
f 200/1/2 194/1/2 201/1/2
f 191/1/2 198/1/2 202/1/2
f 202/1/2 198/1/2 203/1/2
f 191/1/2 202/1/2 204/1/2
f 204/1/2 202/1/2 205/1/2
f 202/4/2 203/4/2 206/4/2
f 205/1/2 202/1/2 206/1/2
f 206/4/2 203/4/2 207/4/2
f 207/4/2 203/4/2 208/4/2
f 198/5/2 199/5/2 209/5/2
f 199/5/2 200/5/2 209/5/2
f 200/5/2 201/5/2 209/5/2
f 203/1/2 198/1/2 209/1/2
f 209/5/2 201/5/2 210/5/2
f 210/5/2 201/5/2 211/5/2
f 201/1/2 194/1/2 212/1/2
f 211/5/2 201/5/2 212/5/2
f 207/6/2 208/6/2 213/6/2
f 213/6/2 208/6/2 214/6/2
f 214/6/2 208/6/2 215/6/2
f 215/6/2 208/6/2 216/6/2
f 208/4/2 203/4/2 217/4/2
f 203/1/2 209/1/2 218/1/2
f 217/4/2 203/4/2 218/4/2
f 209/1/2 210/1/2 218/1/2
f 210/5/2 211/5/2 219/5/2
f 218/1/2 210/1/2 219/1/2
f 211/1/2 212/1/2 220/1/2
f 219/5/2 211/5/2 220/5/2
f 191/1/2 204/1/2 221/1/2
f 204/6/2 205/6/2 222/6/2
f 221/1/2 204/1/2 222/1/2
f 206/4/2 207/4/2 223/4/2
f 207/6/2 213/6/2 223/6/2
f 213/5/2 214/5/2 224/5/2
f 223/6/2 213/6/2 224/6/2
f 214/6/2 215/6/2 225/6/2
f 224/5/2 214/5/2 225/5/2
f 215/5/2 216/5/2 226/5/2
f 225/6/2 215/6/2 226/6/2
f 216/6/2 208/6/2 227/6/2
f 226/5/2 216/5/2 227/5/2
f 208/4/2 217/4/2 228/4/2
f 227/6/2 208/6/2 228/6/2
f 217/6/2 218/6/2 229/6/2
f 228/4/2 217/4/2 229/4/2
f 218/1/2 219/1/2 230/1/2
f 229/6/2 218/6/2 230/6/2
f 219/1/2 220/1/2 230/1/2
f 230/1/2 220/1/2 231/1/2
f 220/1/2 212/1/2 232/1/2
f 231/1/2 220/1/2 232/1/2
f 222/6/2 205/6/2 233/6/2
f 221/2/2 222/2/2 233/2/2
f 205/2/2 206/2/2 234/2/2
f 233/6/2 205/6/2 234/6/2
f 225/4/2 226/4/2 235/4/2
f 227/4/2 228/4/2 235/4/2
f 226/4/2 227/4/2 235/4/2
f 229/4/2 230/4/2 235/4/2
f 223/4/2 224/4/2 235/4/2
f 224/4/2 225/4/2 235/4/2
f 228/4/2 229/4/2 235/4/2
f 230/1/2 231/1/2 236/1/2
f 235/4/2 230/4/2 236/4/2
f 223/4/2 235/4/2 237/4/2
f 206/4/2 223/4/2 237/4/2
f 237/4/2 235/4/2 238/4/2
f 238/4/2 235/4/2 239/4/2
f 239/4/2 235/4/2 240/4/2
f 235/6/2 236/6/2 241/6/2
f 240/4/2 235/4/2 241/4/2
f 236/1/2 231/1/2 242/1/2
f 241/6/2 236/6/2 242/6/2
f 206/4/2 237/4/2 243/4/2
f 237/5/2 238/5/2 243/5/2
f 243/5/2 238/5/2 244/5/2
f 239/5/2 240/5/2 245/5/2
f 240/4/2 241/4/2 246/4/2
f 245/5/2 240/5/2 246/5/2
f 241/4/2 242/4/2 246/4/2
f 242/1/2 231/1/2 247/1/2
f 231/5/2 232/5/2 248/5/2
f 247/1/2 231/1/2 248/1/2
f 232/1/2 212/1/2 249/1/2
f 248/5/2 232/5/2 249/5/2
f 212/1/2 194/1/2 250/1/2
f 249/1/2 212/1/2 250/1/2
f 206/4/2 243/4/2 251/4/2
f 243/6/2 244/6/2 252/6/2
f 251/4/2 243/4/2 252/4/2
f 244/5/2 238/5/2 253/5/2
f 252/6/2 244/6/2 253/6/2
f 238/4/2 239/4/2 254/4/2
f 253/5/2 238/5/2 254/5/2
f 239/5/2 245/5/2 255/5/2
f 254/4/2 239/4/2 255/4/2
f 245/6/2 246/6/2 256/6/2
f 255/5/2 245/5/2 256/5/2
f 246/4/2 242/4/2 257/4/2
f 256/6/2 246/6/2 257/6/2
f 233/2/2 234/2/2 258/2/2
f 221/2/2 233/2/2 258/2/2
f 234/2/2 206/2/2 259/2/2
f 258/2/2 234/2/2 259/2/2
f 206/4/2 251/4/2 260/4/2
f 259/2/2 206/2/2 260/2/2
f 251/6/2 252/6/2 261/6/2
f 260/4/2 251/4/2 261/4/2
f 256/4/2 257/4/2 262/4/2
f 261/6/2 252/6/2 262/6/2
f 253/4/2 254/4/2 262/4/2
f 255/4/2 256/4/2 262/4/2
f 254/4/2 255/4/2 262/4/2
f 252/4/2 253/4/2 262/4/2
f 257/4/2 242/4/2 263/4/2
f 262/4/2 257/4/2 263/4/2
f 242/1/2 247/1/2 263/1/2
f 259/2/2 260/2/2 264/2/2
f 258/6/2 259/6/2 264/6/2
f 260/3/2 261/3/2 265/3/2
f 264/2/2 260/2/2 265/2/2
f 261/6/2 262/6/2 266/6/2
f 265/3/2 261/3/2 266/3/2
f 262/3/2 263/3/2 267/3/2
f 266/6/2 262/6/2 267/6/2
f 267/3/2 263/3/2 268/3/2
f 263/1/2 247/1/2 269/1/2
f 268/3/2 263/3/2 269/3/2
f 264/3/2 265/3/2 270/3/2
f 258/6/2 264/6/2 270/6/2
f 267/6/2 268/6/2 271/6/2
f 270/3/2 265/3/2 271/3/2
f 265/6/2 266/6/2 271/6/2
f 266/6/2 267/6/2 271/6/2
f 271/6/2 268/6/2 272/6/2
f 272/6/2 268/6/2 273/6/2
f 268/1/2 269/1/2 274/1/2
f 273/6/2 268/6/2 274/6/2
f 269/1/2 247/1/2 275/1/2
f 274/1/2 269/1/2 275/1/2
f 248/5/2 249/5/2 276/5/2
f 275/1/2 247/1/2 276/1/2
f 247/5/2 248/5/2 276/5/2
f 249/5/2 250/5/2 276/5/2
f 250/1/2 194/1/2 277/1/2
f 276/5/2 250/5/2 277/5/2
f 277/1/2 194/1/2 278/1/2
f 221/2/2 258/2/2 279/2/2
f 191/1/2 221/1/2 279/1/2
f 271/6/2 272/6/2 280/6/2
f 279/2/2 258/2/2 280/2/2
f 270/6/2 271/6/2 280/6/2
f 258/6/2 270/6/2 280/6/2
f 280/6/2 272/6/2 281/6/2
f 281/6/2 272/6/2 282/6/2
f 272/3/2 273/3/2 283/3/2
f 282/6/2 272/6/2 283/6/2
f 273/1/2 274/1/2 284/1/2
f 283/3/2 273/3/2 284/3/2
f 274/1/2 275/1/2 284/1/2
f 280/3/2 281/3/2 285/3/2
f 279/1/2 280/1/2 285/1/2
f 281/6/2 282/6/2 286/6/2
f 285/3/2 281/3/2 286/3/2
f 282/3/2 283/3/2 287/3/2
f 286/6/2 282/6/2 287/6/2
f 283/1/2 284/1/2 288/1/2
f 287/3/2 283/3/2 288/3/2
f 285/1/2 286/1/2 289/1/2
f 288/1/2 284/1/2 289/1/2
f 287/1/2 288/1/2 289/1/2
f 286/1/2 287/1/2 289/1/2
f 275/5/2 276/5/2 289/5/2
f 276/5/2 277/5/2 289/5/2
f 277/5/2 278/5/2 289/5/2
f 284/1/2 275/1/2 289/1/2
f 278/1/2 194/1/2 290/1/2
f 289/5/2 278/5/2 290/5/2
f 190/6/2 191/6/2 291/6/2
f 181/1/2 190/1/2 291/1/2
f 289/1/2 290/1/2 292/1/2
f 291/6/2 191/6/2 292/6/2
f 285/1/2 289/1/2 292/1/2
f 191/1/2 279/1/2 292/1/2
f 279/1/2 285/1/2 292/1/2
f 290/1/2 194/1/2 293/1/2
f 292/1/2 290/1/2 293/1/2
f 194/6/2 195/6/2 293/6/2
f 195/1/2 189/1/2 294/1/2
f 293/6/2 195/6/2 294/6/2
f 291/1/2 292/1/2 295/1/2
f 181/1/2 291/1/2 295/1/2
f 295/1/2 292/1/2 296/1/2
f 292/6/2 293/6/2 297/6/2
f 296/1/2 292/1/2 297/1/2
f 293/1/2 294/1/2 298/1/2
f 297/6/2 293/6/2 298/6/2
f 294/1/2 189/1/2 299/1/2
f 298/1/2 294/1/2 299/1/2
f 299/1/2 189/1/2 300/1/2
f 297/1/2 298/1/2 301/1/2
f 298/1/2 299/1/2 301/1/2
f 296/1/2 297/1/2 301/1/2
f 301/1/2 299/1/2 302/1/2
f 305/1/3 304/1/3 303/1/3
f 306/1/3 304/1/3 305/1/3
f 311/1/3 308/1/3 307/1/3
f 312/1/3 308/1/3 311/1/3
f 313/1/3 310/1/3 309/1/3
f 314/1/3 310/1/3 313/1/3
f 317/1/3 316/1/3 315/1/3
f 318/1/3 316/1/3 317/1/3
f 319/1/4 320/1/4 321/1/4
f 321/1/4 320/1/4 322/1/4
f 323/1/4 324/1/4 325/1/4
f 325/1/4 324/1/4 326/1/4
f 327/1/4 328/1/4 329/1/4
f 329/1/4 328/1/4 330/1/4
f 331/1/4 332/1/4 333/1/4
f 333/1/4 332/1/4 334/1/4
f 335/1/4 336/1/4 337/1/4
f 337/1/4 336/1/4 338/1/4
f 339/1/4 340/1/4 341/1/4
f 341/1/4 340/1/4 342/1/4
f 343/1/4 344/1/4 347/1/4
f 347/1/4 344/1/4 348/1/4
f 345/1/4 346/1/4 349/1/4
f 349/1/4 346/1/4 350/1/4
f 351/1/4 352/1/4 353/1/4
f 353/1/4 352/1/4 354/1/4
f 357/1/5 356/1/5 355/1/5
f 358/1/5 356/1/5 357/1/5
f 361/1/5 360/1/5 359/1/5
f 362/1/5 360/1/5 361/1/5
f 365/1/5 364/1/5 363/1/5
f 366/1/5 364/1/5 365/1/5
f 369/1/5 368/1/5 367/1/5
f 370/1/5 368/1/5 369/1/5
f 373/1/5 372/1/5 371/1/5
f 374/1/5 372/1/5 373/1/5
f 377/1/5 376/1/5 375/1/5
f 378/1/5 376/1/5 377/1/5
f 381/1/5 380/1/5 379/1/5
f 382/1/5 380/1/5 381/1/5
f 385/1/5 384/1/5 383/1/5
f 386/1/5 384/1/5 385/1/5
f 389/1/5 388/1/5 387/1/5
f 390/1/5 388/1/5 389/1/5
f 393/1/5 392/1/5 391/1/5
f 394/1/5 392/1/5 393/1/5
f 395/1/6 396/1/6 397/1/6
f 397/1/6 396/1/6 398/1/6
f 399/1/6 400/1/6 401/1/6
f 401/1/6 400/1/6 402/1/6
f 403/1/6 404/1/6 405/1/6
f 405/1/6 404/1/6 406/1/6
