# MagicaVoxel @ Ephtracy

# group
g world

# material
mtllib world.mtl
usemtl palette

# normals
vn -1 0 0
vn 1 0 0
vn 0 0 1
vn 0 0 -1
vn 0 -1 0
vn 0 1 0

# texcoords
vt 0.0292969 0.5
vt 0.224609 0.5
vt 0.310547 0.5
vt 0.318359 0.5
vt 0.341797 0.5
vt 0.373047 0.5
vt 0.560547 0.5
vt 0.951172 0.5

# verts
v -30.5 0 20.5
v -30.5 0 -20.5
v -30.5 1 20.5
v -30.5 1 11.5
v -30.5 1 -11.5
v -30.5 1 -20.5
v -30.5 2 20.5
v -30.5 2 11.5
v -30.5 2 -11.5
v -30.5 2 -20.5
v -24.5 1 10.5
v -24.5 1 -10.5
v -24.5 2 10.5
v -24.5 2 -10.5
v -20.5 0 10.5
v -20.5 0 -10.5
v -20.5 1 10.5
v -20.5 1 -10.5
v -14.5 2 -19.5
v -14.5 2 -20.5
v -14.5 3 -19.5
v -14.5 3 -20.5
v -11.5 3 15.5
v -11.5 3 12.5
v -11.5 5 15.5
v -11.5 5 12.5
v -10.5 2 14.5
v -10.5 2 13.5
v -10.5 2 -15.5
v -10.5 2 -19.5
v -10.5 3 14.5
v -10.5 3 13.5
v -10.5 3 -15.5
v -10.5 3 -19.5
v -9.5 3 -15.5
v -9.5 3 -20.5
v -9.5 4 -15.5
v -9.5 4 -20.5
v -8.5 5 -15.5
v -8.5 5 -18.5
v -8.5 7 -15.5
v -8.5 7 -18.5
v -7.5 4 -16.5
v -7.5 4 -17.5
v -7.5 5 -16.5
v -7.5 5 -17.5
v 9.5 2 20.5
v 9.5 2 12.5
v 9.5 3 20.5
v 9.5 3 12.5
v 10.5 3 20.5
v 10.5 3 13.5
v 10.5 4 20.5
v 10.5 4 13.5
v 15.5 5 19.5
v 15.5 5 16.5
v 15.5 7 19.5
v 15.5 7 16.5
v 16.5 4 18.5
v 16.5 4 17.5
v 16.5 5 18.5
v 16.5 5 17.5
v 29.5 0 10.5
v 29.5 0 -10.5
v 29.5 1 10.5
v 29.5 1 -10.5
v 29.5 2 10.5
v 29.5 2 -10.5
v -29.5 0 10.5
v -29.5 0 -10.5
v -29.5 1 10.5
v -29.5 1 -10.5
v -29.5 2 10.5
v -29.5 2 -10.5
v -9.5 2 14.5
v -9.5 2 13.5
v -9.5 3 14.5
v -9.5 3 13.5
v -8.5 3 15.5
v -8.5 3 12.5
v -8.5 5 15.5
v -8.5 5 12.5
v -6.5 4 -16.5
v -6.5 4 -17.5
v -6.5 5 -16.5
v -6.5 5 -17.5
v -5.5 3 -15.5
v -5.5 3 -20.5
v -5.5 4 -15.5
v -5.5 4 -20.5
v -5.5 5 -15.5
v -5.5 5 -18.5
v -5.5 7 -15.5
v -5.5 7 -18.5
v -3.5 2 -15.5
v -3.5 2 -20.5
v -3.5 3 -15.5
v -3.5 3 -20.5
v 17.5 4 18.5
v 17.5 4 17.5
v 17.5 5 18.5
v 17.5 5 17.5
v 18.5 3 20.5
v 18.5 3 13.5
v 18.5 4 20.5
v 18.5 4 13.5
v 18.5 5 19.5
v 18.5 5 16.5
v 18.5 7 19.5
v 18.5 7 16.5
v 20.5 0 10.5
v 20.5 0 9.5
v 20.5 1 10.5
v 20.5 1 9.5
v 20.5 2 20.5
v 20.5 2 12.5
v 20.5 3 20.5
v 20.5 3 12.5
v 23.5 0 9.5
v 23.5 0 -10.5
v 23.5 1 9.5
v 23.5 1 -10.5
v 24.5 1 10.5
v 24.5 1 -10.5
v 24.5 2 10.5
v 24.5 2 -10.5
v 30.5 0 20.5
v 30.5 0 -20.5
v 30.5 1 20.5
v 30.5 1 11.5
v 30.5 1 -11.5
v 30.5 1 -20.5
v 30.5 2 20.5
v 30.5 2 11.5
v 30.5 2 -11.5
v 30.5 2 -20.5
v -30.5 0 20.5
v -30.5 1 20.5
v -30.5 2 20.5
v 9.5 2 20.5
v 9.5 3 20.5
v 10.5 3 20.5
v 10.5 4 20.5
v 18.5 3 20.5
v 18.5 4 20.5
v 20.5 2 20.5
v 20.5 3 20.5
v 30.5 0 20.5
v 30.5 1 20.5
v 30.5 2 20.5
v 15.5 5 19.5
v 15.5 7 19.5
v 18.5 5 19.5
v 18.5 7 19.5
v 16.5 4 18.5
v 16.5 5 18.5
v 17.5 4 18.5
v 17.5 5 18.5
v -11.5 3 15.5
v -11.5 5 15.5
v -8.5 3 15.5
v -8.5 5 15.5
v -10.5 2 14.5
v -10.5 3 14.5
v -9.5 2 14.5
v -9.5 3 14.5
v 20.5 0 9.5
v 20.5 1 9.5
v 23.5 0 9.5
v 23.5 1 9.5
v -29.5 0 -10.5
v -29.5 1 -10.5
v -29.5 2 -10.5
v -24.5 1 -10.5
v -24.5 2 -10.5
v -23.5 1 -10.5
v -20.5 0 -10.5
v -20.5 1 -10.5
v 23.5 0 -10.5
v 23.5 1 -10.5
v 24.5 1 -10.5
v 24.5 2 -10.5
v 29.5 0 -10.5
v 29.5 1 -10.5
v 29.5 2 -10.5
v -10.5 2 -15.5
v -10.5 3 -15.5
v -9.5 3 -15.5
v -9.5 4 -15.5
v -8.5 5 -15.5
v -8.5 7 -15.5
v -5.5 3 -15.5
v -5.5 4 -15.5
v -5.5 5 -15.5
v -5.5 7 -15.5
v -3.5 2 -15.5
v -3.5 3 -15.5
v -7.5 4 -16.5
v -7.5 5 -16.5
v -6.5 4 -16.5
v -6.5 5 -16.5
v -14.5 2 -19.5
v -14.5 3 -19.5
v -10.5 2 -19.5
v -10.5 3 -19.5
v 16.5 4 17.5
v 16.5 5 17.5
v 17.5 4 17.5
v 17.5 5 17.5
v 15.5 5 16.5
v 15.5 7 16.5
v 18.5 5 16.5
v 18.5 7 16.5
v -10.5 2 13.5
v -10.5 3 13.5
v -9.5 2 13.5
v -9.5 3 13.5
v 10.5 3 13.5
v 10.5 4 13.5
v 18.5 3 13.5
v 18.5 4 13.5
v -11.5 3 12.5
v -11.5 5 12.5
v -8.5 3 12.5
v -8.5 5 12.5
v 9.5 2 12.5
v 9.5 3 12.5
v 20.5 2 12.5
v 20.5 3 12.5
v -29.5 0 10.5
v -29.5 1 10.5
v -29.5 2 10.5
v -24.5 1 10.5
v -24.5 2 10.5
v -23.5 1 10.5
v -20.5 0 10.5
v -20.5 1 10.5
v 20.5 0 10.5
v 20.5 1 10.5
v 23.5 1 10.5
v 24.5 1 10.5
v 24.5 2 10.5
v 29.5 0 10.5
v 29.5 1 10.5
v 29.5 2 10.5
v -7.5 4 -17.5
v -7.5 5 -17.5
v -6.5 4 -17.5
v -6.5 5 -17.5
v -8.5 5 -18.5
v -8.5 7 -18.5
v -5.5 5 -18.5
v -5.5 7 -18.5
v -30.5 0 -20.5
v -30.5 1 -20.5
v -30.5 2 -20.5
v -14.5 2 -20.5
v -14.5 3 -20.5
v -9.5 3 -20.5
v -9.5 4 -20.5
v -5.5 3 -20.5
v -5.5 4 -20.5
v -3.5 2 -20.5
v -3.5 3 -20.5
v 30.5 0 -20.5
v 30.5 1 -20.5
v 30.5 2 -20.5
v -30.5 0 20.5
v 30.5 0 20.5
v -29.5 0 10.5
v -20.5 0 10.5
v 20.5 0 10.5
v 29.5 0 10.5
v 20.5 0 9.5
v 23.5 0 9.5
v -29.5 0 -10.5
v -20.5 0 -10.5
v 20.5 0 -10.5
v 23.5 0 -10.5
v 29.5 0 -10.5
v -30.5 0 -20.5
v 30.5 0 -20.5
v -24.5 1 10.5
v -23.5 1 10.5
v -20.5 1 10.5
v 20.5 1 10.5
v 23.5 1 10.5
v 24.5 1 10.5
v 20.5 1 9.5
v 23.5 1 9.5
v -24.5 1 -10.5
v -23.5 1 -10.5
v -20.5 1 -10.5
v 23.5 1 -10.5
v 24.5 1 -10.5
v -11.5 3 15.5
v -8.5 3 15.5
v -10.5 3 14.5
v -9.5 3 14.5
v -10.5 3 13.5
v -9.5 3 13.5
v -11.5 3 12.5
v -8.5 3 12.5
v 15.5 5 19.5
v 18.5 5 19.5
v 16.5 5 18.5
v 17.5 5 18.5
v 16.5 5 17.5
v 17.5 5 17.5
v 15.5 5 16.5
v 18.5 5 16.5
v -8.5 5 -15.5
v -5.5 5 -15.5
v -7.5 5 -16.5
v -6.5 5 -16.5
v -7.5 5 -17.5
v -6.5 5 -17.5
v -8.5 5 -18.5
v -5.5 5 -18.5
v -30.5 2 20.5
v 9.5 2 20.5
v 20.5 2 20.5
v 30.5 2 20.5
v -11.5 2 15.5
v -8.5 2 15.5
v -10.5 2 14.5
v -9.5 2 14.5
v -10.5 2 13.5
v -9.5 2 13.5
v -11.5 2 12.5
v -8.5 2 12.5
v 9.5 2 12.5
v 20.5 2 12.5
v -30.5 2 11.5
v -23.5 2 11.5
v 23.5 2 11.5
v 30.5 2 11.5
v -29.5 2 10.5
v -24.5 2 10.5
v 24.5 2 10.5
v 29.5 2 10.5
v -29.5 2 -10.5
v -24.5 2 -10.5
v 24.5 2 -10.5
v 29.5 2 -10.5
v -30.5 2 -11.5
v -23.5 2 -11.5
v 23.5 2 -11.5
v 30.5 2 -11.5
v -10.5 2 -15.5
v -3.5 2 -15.5
v -14.5 2 -19.5
v -10.5 2 -19.5
v -30.5 2 -20.5
v -14.5 2 -20.5
v -3.5 2 -20.5
v 30.5 2 -20.5
v 9.5 3 20.5
v 10.5 3 20.5
v 18.5 3 20.5
v 20.5 3 20.5
v 10.5 3 13.5
v 18.5 3 13.5
v 9.5 3 12.5
v 20.5 3 12.5
v -10.5 3 -15.5
v -9.5 3 -15.5
v -5.5 3 -15.5
v -3.5 3 -15.5
v -14.5 3 -19.5
v -10.5 3 -19.5
v -14.5 3 -20.5
v -9.5 3 -20.5
v -5.5 3 -20.5
v -3.5 3 -20.5
v 10.5 4 20.5
v 18.5 4 20.5
v 16.5 4 18.5
v 17.5 4 18.5
v 16.5 4 17.5
v 17.5 4 17.5
v 10.5 4 13.5
v 18.5 4 13.5
v -9.5 4 -15.5
v -5.5 4 -15.5
v -7.5 4 -16.5
v -6.5 4 -16.5
v -7.5 4 -17.5
v -6.5 4 -17.5
v -9.5 4 -20.5
v -5.5 4 -20.5
v -11.5 5 15.5
v -8.5 5 15.5
v -11.5 5 12.5
v -8.5 5 12.5
v 15.5 7 19.5
v 18.5 7 19.5
v 15.5 7 16.5
v 18.5 7 16.5
v -8.5 7 -15.5
v -5.5 7 -15.5
v -8.5 7 -18.5
v -5.5 7 -18.5

# faces
f 3/8/1 2/8/1 1/8/1
f 4/8/1 2/8/1 3/8/1
f 5/8/1 2/8/1 4/8/1
f 6/8/1 2/8/1 5/8/1
f 7/4/1 4/4/1 3/4/1
f 8/1/1 5/1/1 4/1/1
f 8/4/1 4/4/1 7/4/1
f 9/4/1 6/4/1 5/4/1
f 9/1/1 5/1/1 8/1/1
f 10/4/1 6/4/1 9/4/1
f 13/1/1 12/1/1 11/1/1
f 14/1/1 12/1/1 13/1/1
f 17/8/1 16/8/1 15/8/1
f 18/8/1 16/8/1 17/8/1
f 21/5/1 20/5/1 19/5/1
f 22/5/1 20/5/1 21/5/1
f 25/7/1 24/7/1 23/7/1
f 26/7/1 24/7/1 25/7/1
f 31/2/1 28/2/1 27/2/1
f 32/2/1 28/2/1 31/2/1
f 33/5/1 30/5/1 29/5/1
f 34/5/1 30/5/1 33/5/1
f 37/3/1 36/3/1 35/3/1
f 38/3/1 36/3/1 37/3/1
f 41/7/1 40/7/1 39/7/1
f 42/7/1 40/7/1 41/7/1
f 45/2/1 44/2/1 43/2/1
f 46/2/1 44/2/1 45/2/1
f 49/5/1 48/5/1 47/5/1
f 50/5/1 48/5/1 49/5/1
f 53/3/1 52/3/1 51/3/1
f 54/3/1 52/3/1 53/3/1
f 57/7/1 56/7/1 55/7/1
f 58/7/1 56/7/1 57/7/1
f 61/2/1 60/2/1 59/2/1
f 62/2/1 60/2/1 61/2/1
f 65/8/1 64/8/1 63/8/1
f 66/8/1 64/8/1 65/8/1
f 67/6/1 66/6/1 65/6/1
f 68/6/1 66/6/1 67/6/1
f 69/8/2 70/8/2 71/8/2
f 71/8/2 70/8/2 72/8/2
f 71/1/2 72/1/2 73/1/2
f 73/1/2 72/1/2 74/1/2
f 75/2/2 76/2/2 77/2/2
f 77/2/2 76/2/2 78/2/2
f 79/7/2 80/7/2 81/7/2
f 81/7/2 80/7/2 82/7/2
f 83/2/2 84/2/2 85/2/2
f 85/2/2 84/2/2 86/2/2
f 87/3/2 88/3/2 89/3/2
f 89/3/2 88/3/2 90/3/2
f 91/7/2 92/7/2 93/7/2
f 93/7/2 92/7/2 94/7/2
f 95/5/2 96/5/2 97/5/2
f 97/5/2 96/5/2 98/5/2
f 99/2/2 100/2/2 101/2/2
f 101/2/2 100/2/2 102/2/2
f 103/3/2 104/3/2 105/3/2
f 105/3/2 104/3/2 106/3/2
f 107/7/2 108/7/2 109/7/2
f 109/7/2 108/7/2 110/7/2
f 111/8/2 112/8/2 113/8/2
f 113/8/2 112/8/2 114/8/2
f 115/5/2 116/5/2 117/5/2
f 117/5/2 116/5/2 118/5/2
f 119/4/2 120/4/2 121/4/2
f 121/4/2 120/4/2 122/4/2
f 123/6/2 124/6/2 125/6/2
f 125/6/2 124/6/2 126/6/2
f 127/8/2 128/8/2 129/8/2
f 129/8/2 128/8/2 130/8/2
f 130/8/2 128/8/2 131/8/2
f 131/8/2 128/8/2 132/8/2
f 129/4/2 130/4/2 133/4/2
f 130/6/2 131/6/2 134/6/2
f 133/4/2 130/4/2 134/4/2
f 131/4/2 132/4/2 135/4/2
f 134/6/2 131/6/2 135/6/2
f 135/4/2 132/4/2 136/4/2
f 140/4/3 139/4/3 138/4/3
f 142/5/3 141/5/3 140/5/3
f 144/5/3 142/5/3 140/5/3
f 144/3/3 143/3/3 142/3/3
f 145/3/3 143/3/3 144/3/3
f 146/4/3 140/4/3 138/4/3
f 146/5/3 144/5/3 140/5/3
f 147/5/3 144/5/3 146/5/3
f 148/8/3 138/8/3 137/8/3
f 149/4/3 146/4/3 138/4/3
f 149/8/3 138/8/3 148/8/3
f 150/4/3 146/4/3 149/4/3
f 153/7/3 152/7/3 151/7/3
f 154/7/3 152/7/3 153/7/3
f 157/2/3 156/2/3 155/2/3
f 158/2/3 156/2/3 157/2/3
f 161/7/3 160/7/3 159/7/3
f 162/7/3 160/7/3 161/7/3
f 165/2/3 164/2/3 163/2/3
f 166/2/3 164/2/3 165/2/3
f 169/4/3 168/4/3 167/4/3
f 170/4/3 168/4/3 169/4/3
f 174/8/3 172/8/3 171/8/3
f 174/1/3 173/1/3 172/1/3
f 175/1/3 173/1/3 174/1/3
f 176/8/3 174/8/3 171/8/3
f 177/8/3 176/8/3 171/8/3
f 178/8/3 176/8/3 177/8/3
f 181/8/3 180/8/3 179/8/3
f 183/8/3 181/8/3 179/8/3
f 184/6/3 182/6/3 181/6/3
f 184/8/3 181/8/3 183/8/3
f 185/6/3 182/6/3 184/6/3
f 188/5/3 187/5/3 186/5/3
f 192/5/3 188/5/3 186/5/3
f 192/3/3 189/3/3 188/3/3
f 193/3/3 189/3/3 192/3/3
f 194/7/3 191/7/3 190/7/3
f 195/7/3 191/7/3 194/7/3
f 196/5/3 192/5/3 186/5/3
f 197/5/3 192/5/3 196/5/3
f 200/2/3 199/2/3 198/2/3
f 201/2/3 199/2/3 200/2/3
f 204/5/3 203/5/3 202/5/3
f 205/5/3 203/5/3 204/5/3
f 206/2/4 207/2/4 208/2/4
f 208/2/4 207/2/4 209/2/4
f 210/7/4 211/7/4 212/7/4
f 212/7/4 211/7/4 213/7/4
f 214/2/4 215/2/4 216/2/4
f 216/2/4 215/2/4 217/2/4
f 218/3/4 219/3/4 220/3/4
f 220/3/4 219/3/4 221/3/4
f 222/7/4 223/7/4 224/7/4
f 224/7/4 223/7/4 225/7/4
f 226/5/4 227/5/4 228/5/4
f 228/5/4 227/5/4 229/5/4
f 230/8/4 231/8/4 233/8/4
f 231/1/4 232/1/4 233/1/4
f 233/1/4 232/1/4 234/1/4
f 230/8/4 233/8/4 235/8/4
f 230/8/4 235/8/4 236/8/4
f 236/8/4 235/8/4 237/8/4
f 238/8/4 239/8/4 240/8/4
f 238/8/4 240/8/4 241/8/4
f 238/8/4 241/8/4 243/8/4
f 241/6/4 242/6/4 244/6/4
f 243/8/4 241/8/4 244/8/4
f 244/6/4 242/6/4 245/6/4
f 246/2/4 247/2/4 248/2/4
f 248/2/4 247/2/4 249/2/4
f 250/7/4 251/7/4 252/7/4
f 252/7/4 251/7/4 253/7/4
f 255/4/4 256/4/4 257/4/4
f 257/5/4 258/5/4 259/5/4
f 257/5/4 259/5/4 261/5/4
f 259/3/4 260/3/4 261/3/4
f 261/3/4 260/3/4 262/3/4
f 255/4/4 257/4/4 263/4/4
f 257/5/4 261/5/4 263/5/4
f 263/5/4 261/5/4 264/5/4
f 254/8/4 255/8/4 265/8/4
f 255/4/4 263/4/4 266/4/4
f 265/8/4 255/8/4 266/8/4
f 266/4/4 263/4/4 267/4/4
f 270/8/5 269/8/5 268/8/5
f 271/8/5 269/8/5 270/8/5
f 272/8/5 269/8/5 271/8/5
f 273/8/5 269/8/5 272/8/5
f 274/8/5 272/8/5 271/8/5
f 276/8/5 270/8/5 268/8/5
f 277/8/5 274/8/5 271/8/5
f 278/4/5 275/4/5 274/4/5
f 278/8/5 274/8/5 277/8/5
f 279/4/5 275/4/5 278/4/5
f 280/8/5 269/8/5 273/8/5
f 281/8/5 277/8/5 276/8/5
f 281/8/5 280/8/5 279/8/5
f 281/8/5 279/8/5 278/8/5
f 281/8/5 276/8/5 268/8/5
f 281/8/5 278/8/5 277/8/5
f 282/8/5 269/8/5 280/8/5
f 282/8/5 280/8/5 281/8/5
f 289/4/5 287/4/5 286/4/5
f 290/6/5 288/6/5 287/6/5
f 290/4/5 287/4/5 289/4/5
f 291/1/5 284/1/5 283/1/5
f 292/4/5 285/4/5 284/4/5
f 292/1/5 284/1/5 291/1/5
f 293/4/5 285/4/5 292/4/5
f 294/6/5 288/6/5 290/6/5
f 295/6/5 288/6/5 294/6/5
f 298/7/5 297/7/5 296/7/5
f 299/7/5 297/7/5 298/7/5
f 300/7/5 298/7/5 296/7/5
f 301/7/5 297/7/5 299/7/5
f 302/7/5 300/7/5 296/7/5
f 302/7/5 301/7/5 300/7/5
f 303/7/5 297/7/5 301/7/5
f 303/7/5 301/7/5 302/7/5
f 306/7/5 305/7/5 304/7/5
f 307/7/5 305/7/5 306/7/5
f 308/7/5 306/7/5 304/7/5
f 309/7/5 305/7/5 307/7/5
f 310/7/5 308/7/5 304/7/5
f 310/7/5 309/7/5 308/7/5
f 311/7/5 305/7/5 309/7/5
f 311/7/5 309/7/5 310/7/5
f 314/7/5 313/7/5 312/7/5
f 315/7/5 313/7/5 314/7/5
f 316/7/5 314/7/5 312/7/5
f 317/7/5 313/7/5 315/7/5
f 318/7/5 316/7/5 312/7/5
f 318/7/5 317/7/5 316/7/5
f 319/7/5 313/7/5 317/7/5
f 319/7/5 317/7/5 318/7/5
f 320/4/6 321/4/6 324/4/6
f 324/4/6 321/4/6 325/4/6
f 324/3/6 325/3/6 326/3/6
f 326/3/6 325/3/6 327/3/6
f 324/3/6 326/3/6 328/3/6
f 327/3/6 325/3/6 329/3/6
f 320/4/6 324/4/6 330/4/6
f 328/3/6 329/3/6 330/3/6
f 324/3/6 328/3/6 330/3/6
f 329/3/6 325/3/6 331/3/6
f 330/3/6 329/3/6 331/3/6
f 325/4/6 321/4/6 331/4/6
f 331/4/6 321/4/6 332/4/6
f 322/4/6 323/4/6 333/4/6
f 331/4/6 332/4/6 334/4/6
f 332/4/6 333/4/6 334/4/6
f 320/4/6 330/4/6 334/4/6
f 330/4/6 331/4/6 334/4/6
f 334/4/6 333/4/6 335/4/6
f 333/4/6 323/4/6 336/4/6
f 335/4/6 333/4/6 336/4/6
f 336/4/6 323/4/6 337/4/6
f 334/1/6 335/1/6 338/1/6
f 338/1/6 335/1/6 339/1/6
f 336/6/6 337/6/6 340/6/6
f 340/6/6 337/6/6 341/6/6
f 334/1/6 338/1/6 342/1/6
f 339/1/6 335/1/6 343/1/6
f 336/6/6 340/6/6 344/6/6
f 341/6/6 337/6/6 345/6/6
f 334/1/6 342/1/6 346/1/6
f 342/1/6 343/1/6 346/1/6
f 335/4/6 336/4/6 347/4/6
f 346/1/6 343/1/6 347/1/6
f 343/1/6 335/1/6 347/1/6
f 344/6/6 345/6/6 348/6/6
f 347/4/6 336/4/6 348/4/6
f 336/6/6 344/6/6 348/6/6
f 345/6/6 337/6/6 349/6/6
f 348/6/6 345/6/6 349/6/6
f 346/4/6 347/4/6 350/4/6
f 347/4/6 348/4/6 350/4/6
f 348/4/6 349/4/6 350/4/6
f 350/4/6 349/4/6 351/4/6
f 346/4/6 350/4/6 352/4/6
f 352/4/6 350/4/6 353/4/6
f 346/4/6 352/4/6 354/4/6
f 354/4/6 352/4/6 355/4/6
f 351/4/6 349/4/6 356/4/6
f 356/4/6 349/4/6 357/4/6
f 358/5/6 359/5/6 362/5/6
f 360/5/6 361/5/6 363/5/6
f 358/5/6 362/5/6 364/5/6
f 362/5/6 363/5/6 364/5/6
f 363/5/6 361/5/6 365/5/6
f 364/5/6 363/5/6 365/5/6
f 366/5/6 367/5/6 371/5/6
f 370/5/6 371/5/6 372/5/6
f 371/5/6 367/5/6 373/5/6
f 372/5/6 371/5/6 373/5/6
f 368/5/6 369/5/6 374/5/6
f 374/5/6 369/5/6 375/5/6
f 376/3/6 377/3/6 378/3/6
f 378/3/6 377/3/6 379/3/6
f 376/3/6 378/3/6 380/3/6
f 379/3/6 377/3/6 381/3/6
f 376/3/6 380/3/6 382/3/6
f 380/3/6 381/3/6 382/3/6
f 381/3/6 377/3/6 383/3/6
f 382/3/6 381/3/6 383/3/6
f 384/3/6 385/3/6 386/3/6
f 386/3/6 385/3/6 387/3/6
f 384/3/6 386/3/6 388/3/6
f 387/3/6 385/3/6 389/3/6
f 384/3/6 388/3/6 390/3/6
f 388/3/6 389/3/6 390/3/6
f 389/3/6 385/3/6 391/3/6
f 390/3/6 389/3/6 391/3/6
f 392/7/6 393/7/6 394/7/6
f 394/7/6 393/7/6 395/7/6
f 396/7/6 397/7/6 398/7/6
f 398/7/6 397/7/6 399/7/6
f 400/7/6 401/7/6 402/7/6
f 402/7/6 401/7/6 403/7/6
